<svg width="41.684570" height="29.541016" viewBox="0 0 41.6846 29.541" fill="none" xmlns="http://www.w3.org/2000/svg" xmlns:xlink="http://www.w3.org/1999/xlink">
	<desc>
			Created with Pixso.
	</desc>
	<defs/>
	<path id="Vector" d="M14.33 5C15.26 5 16.11 5.06 16.9 5.28C17.68 5.41 18.32 5.7 18.9 6.05C19.47 6.4 19.89 6.9 20.18 7.54C20.46 8.18 20.61 8.96 20.61 9.81C20.61 10.8 20.4 11.65 19.9 12.28C19.47 12.92 18.76 13.49 17.9 13.91C19.12 14.26 20.04 14.9 20.61 15.75C21.17 16.6 21.53 17.66 21.53 18.87C21.53 19.85 21.32 20.7 20.96 21.41C20.61 22.12 20.03 22.76 19.39 23.18C18.75 23.61 17.96 23.96 17.11 24.17C16.25 24.38 15.4 24.52 14.54 24.52L5 24.54L5 5L14.33 5ZM13.76 12.92C14.54 12.92 15.19 12.71 15.68 12.35C16.17 12 16.39 11.37 16.39 10.59C16.39 10.16 16.32 9.74 16.18 9.46C16.04 9.18 15.83 8.96 15.54 8.75C15.26 8.61 14.97 8.47 14.62 8.4C14.26 8.33 13.9 8.33 13.48 8.33L9.35 8.33L9.35 12.93C9.35 12.92 13.76 12.92 13.76 12.92ZM13.97 21.28C14.4 21.28 14.83 21.21 15.19 21.14C15.54 21.07 15.9 20.93 16.18 20.71C16.46 20.49 16.69 20.28 16.9 19.93C17.04 19.58 17.18 19.15 17.18 18.66C17.18 17.67 16.9 16.96 16.32 16.46C15.75 16.03 14.97 15.82 14.04 15.82L9.35 15.82L9.35 21.27L13.97 21.27L13.97 21.28Z" fill="#FFFFFF" fill-opacity="1.000000" fill-rule="nonzero"/>
	<path id="Vector" d="M27.31 20.72C27.89 21.29 28.74 21.57 29.88 21.57C30.66 21.57 31.37 21.36 31.95 21C32.52 20.57 32.87 20.15 33.01 19.72L36.5 19.72C35.93 21.42 35.08 22.63 33.94 23.41C32.8 24.12 31.45 24.54 29.81 24.54C28.67 24.54 27.67 24.33 26.74 23.97C25.82 23.62 25.1 23.12 24.46 22.41C23.82 21.77 23.32 20.99 23.03 20.07C22.68 19.15 22.53 18.17 22.53 17.03C22.53 15.97 22.67 14.97 23.03 14.05C23.39 13.13 23.89 12.35 24.53 11.65C25.17 11.01 25.96 10.44 26.81 10.09C27.74 9.74 28.66 9.52 29.81 9.52C31.02 9.52 32.09 9.73 33.01 10.23C33.94 10.73 34.65 11.29 35.22 12.14C35.8 12.91 36.22 13.83 36.51 14.82C36.65 15.81 36.72 16.81 36.65 17.94L26.32 17.94C26.32 19.09 26.74 20.15 27.31 20.72ZM31.81 13.28C31.3 12.78 30.52 12.5 29.6 12.5C28.95 12.5 28.46 12.64 28.03 12.85C27.6 13.06 27.31 13.35 27.03 13.63C26.75 13.91 26.6 14.27 26.53 14.62C26.46 14.97 26.39 15.26 26.39 15.54L32.8 15.54C32.66 14.49 32.3 13.78 31.81 13.28ZM25.53 5.85L33.52 5.85L33.52 7.76L25.53 7.76L25.53 5.85Z" fill="#FFFFFF" fill-opacity="1.000000" fill-rule="nonzero"/>
</svg>
