<svg width="50.000000" height="50.000000" viewBox="0 0 50 50" fill="none" xmlns="http://www.w3.org/2000/svg" xmlns:xlink="http://www.w3.org/1999/xlink">
	<desc>
			Created with Pixso.
	</desc>
	<defs>
		<clipPath id="clip6_844">
			<rect id="icon digital art" rx="0.000000" width="49.000000" height="49.000000" transform="translate(0.500000 0.500000)" fill="white" fill-opacity="0"/>
		</clipPath>
	</defs>
	<g clip-path="url(#clip6_844)">
		<mask id="mask5_7" mask-type="alpha" maskUnits="userSpaceOnUse" x="0.000000" y="0.000000" width="50.000000" height="50.000000">
			<rect id="Bounding box" width="50.000000" height="50.000000" fill="#7061F0" fill-opacity="1.000000"/>
		</mask>
		<g mask="url(#mask5_7)">
			<path id="brush" d="M12.5 43.75C10.93 43.75 9.39 43.36 7.86 42.6C6.33 41.84 5.1 40.83 4.16 39.58C5.06 39.58 5.98 39.22 6.92 38.51C7.86 37.8 8.33 36.77 8.33 35.41C8.33 33.68 8.94 32.2 10.15 30.98C11.37 29.77 12.84 29.16 14.58 29.16C16.31 29.16 17.79 29.77 19.01 30.98C20.22 32.2 20.83 33.68 20.83 35.41C20.83 37.7 20.01 39.67 18.38 41.3C16.75 42.93 14.79 43.75 12.5 43.75ZM12.5 39.58C13.64 39.58 14.62 39.17 15.44 38.35C16.25 37.54 16.66 36.56 16.66 35.41C16.66 34.82 16.46 34.33 16.06 33.93C15.66 33.53 15.17 33.33 14.58 33.33C13.99 33.33 13.49 33.53 13.09 33.93C12.69 34.33 12.5 34.82 12.5 35.41C12.5 36.21 12.4 36.94 12.21 37.6C12.02 38.26 11.77 38.88 11.45 39.47C11.63 39.54 11.8 39.58 11.97 39.58L12.5 39.58ZM24.47 31.25L18.75 25.52L37.39 6.87C37.77 6.49 38.25 6.29 38.82 6.27C39.4 6.25 39.89 6.45 40.31 6.87L43.12 9.68C43.54 10.1 43.75 10.59 43.75 11.14C43.75 11.7 43.54 12.18 43.12 12.6L24.47 31.25Z" fill="#7061F0" fill-opacity="1.000000" fill-rule="nonzero"/>
		</g>
	</g>
</svg>
