<svg width="33.069824" height="34.000000" viewBox="0 0 33.0698 34" fill="none" xmlns="http://www.w3.org/2000/svg" xmlns:xlink="http://www.w3.org/1999/xlink">
	<desc>
			Created with Pixso.
	</desc>
	<defs/>
	<rect id="figma_logo" rx="0.000000" width="15.680161" height="23.680241" transform="translate(8.694670 5.160002)" fill="#FFFFFF" fill-opacity="0"/>
	<path id="Vector" d="M17.7 14.17C18.45 13.42 19.47 13 20.53 13C21.59 13 22.61 13.42 23.36 14.17C24.11 14.92 24.53 15.93 24.53 17C24.53 18.06 24.11 19.07 23.36 19.82C22.61 20.57 21.59 21 20.53 21C19.47 21 18.45 20.57 17.7 19.82C16.95 19.07 16.53 18.06 16.53 17C16.53 15.93 16.95 14.92 17.7 14.17Z" stroke="#FFFFFF" stroke-opacity="1.000000" stroke-width="1.120011"/>
	<path id="Vector" d="M9.7 22.17C10.45 21.42 11.47 21 12.53 21L16.53 21L16.53 25C16.53 26.06 16.11 27.07 15.36 27.82C14.61 28.57 13.59 29 12.53 29C11.47 29 10.45 28.57 9.7 27.82C8.95 27.07 8.53 26.06 8.53 25C8.53 23.93 8.95 22.92 9.7 22.17Z" stroke="#FFFFFF" stroke-opacity="1.000000" stroke-width="1.120011"/>
	<path id="Vector" d="M16.53 13L20.53 13C21.59 13 22.61 12.57 23.36 11.82C24.11 11.07 24.53 10.06 24.53 9C24.53 7.93 24.11 6.92 23.36 6.17C22.61 5.42 21.59 5 20.53 5L16.53 5L16.53 13Z" stroke="#FFFFFF" stroke-opacity="1.000000" stroke-width="1.120011"/>
	<path id="Vector" d="M9.7 11.82C10.45 12.57 11.47 13 12.53 13L16.53 13L16.53 5L12.53 5C11.47 5 10.45 5.42 9.7 6.17C8.95 6.92 8.53 7.93 8.53 9C8.53 10.06 8.95 11.07 9.7 11.82Z" stroke="#FFFFFF" stroke-opacity="1.000000" stroke-width="1.120011"/>
	<path id="Vector" d="M9.7 19.82C10.45 20.57 11.47 21 12.53 21L16.53 21L16.53 13L12.53 13C11.47 13 10.45 13.42 9.7 14.17C8.95 14.92 8.53 15.93 8.53 17C8.53 18.06 8.95 19.07 9.7 19.82Z" stroke="#FFFFFF" stroke-opacity="1.000000" stroke-width="1.120011"/>
</svg>
