<svg width="50.000000" height="50.000000" viewBox="0 0 50 50" fill="none" xmlns="http://www.w3.org/2000/svg" xmlns:xlink="http://www.w3.org/1999/xlink">
	<desc>
			Created with Pixso.
	</desc>
	<defs>
		<clipPath id="clip6_853">
			<rect id="icon graphic design" rx="0.000000" width="49.000000" height="49.000000" transform="translate(0.500000 0.500000)" fill="white" fill-opacity="0"/>
		</clipPath>
	</defs>
	<g clip-path="url(#clip6_853)">
		<mask id="mask6_855" mask-type="alpha" maskUnits="userSpaceOnUse" x="0.000000" y="-0.045654" width="50.000000" height="50.000000">
			<rect id="Bounding box" y="-0.045654" width="50.000000" height="50.000000" fill="#4949E9" fill-opacity="1.000000"/>
		</mask>
		<g mask="url(#mask6_855)">
			<path id="format_shapes" d="M2.08 47.87L2.08 35.37L6.25 35.37L6.25 14.53L2.08 14.53L2.08 2.03L14.58 2.03L14.58 6.2L35.41 6.2L35.41 2.03L47.91 2.03L47.91 14.53L43.75 14.53L43.75 35.37L47.91 35.37L47.91 47.87L35.41 47.87L35.41 43.7L14.58 43.7L14.58 47.87L2.08 47.87ZM14.58 39.53L35.41 39.53L35.41 35.37L39.58 35.37L39.58 14.53L35.41 14.53L35.41 10.37L14.58 10.37L14.58 14.53L10.41 14.53L10.41 35.37L14.58 35.37L14.58 39.53ZM16.25 33.28L23.33 14.53L26.66 14.53L33.75 33.28L30.52 33.28L28.85 28.49L21.25 28.49L19.58 33.28L16.25 33.28ZM22.18 25.78L27.81 25.78L25.1 17.97L24.89 17.97L22.18 25.78ZM6.25 10.37L10.41 10.37L10.41 6.2L6.25 6.2L6.25 10.37ZM39.58 10.37L43.75 10.37L43.75 6.2L39.58 6.2L39.58 10.37ZM39.58 43.7L43.75 43.7L43.75 39.53L39.58 39.53L39.58 43.7ZM6.25 43.7L10.41 43.7L10.41 39.53L6.25 39.53L6.25 43.7Z" fill="#7061F0" fill-opacity="1.000000" fill-rule="nonzero"/>
		</g>
	</g>
</svg>
