<svg width="33.070801" height="33.070801" viewBox="0 0 33.0708 33.0708" fill="none" xmlns="http://www.w3.org/2000/svg" xmlns:xlink="http://www.w3.org/1999/xlink">
	<desc>
			Created with Pixso.
	</desc>
	<defs/>
	<path id="Vector" d="M28.07 6.69L28.07 26.37C28.07 26.82 27.89 27.25 27.57 27.57C27.25 27.89 26.82 28.07 26.37 28.07L6.69 28.07C6.24 28.07 5.81 27.89 5.49 27.57C5.17 27.25 5 26.82 5 26.37L5 6.69C5 6.24 5.17 5.81 5.49 5.49C5.81 5.17 6.24 5 6.69 5L26.37 5C26.82 5 27.25 5.17 27.57 5.49C27.89 5.81 28.07 6.24 28.07 6.69ZM11.78 13.82L8.39 13.82L8.39 24.67L11.78 24.67L11.78 13.82ZM12.09 10.08C12.09 9.83 12.04 9.57 11.94 9.34C11.85 9.1 11.7 8.88 11.52 8.7C11.34 8.52 11.13 8.37 10.89 8.27C10.66 8.17 10.4 8.12 10.15 8.12L10.08 8.12C9.56 8.12 9.06 8.32 8.69 8.69C8.32 9.06 8.12 9.56 8.12 10.08C8.12 10.61 8.32 11.11 8.69 11.48C9.06 11.84 9.56 12.05 10.08 12.05C10.34 12.06 10.6 12.01 10.84 11.92C11.08 11.83 11.29 11.69 11.48 11.51C11.67 11.34 11.82 11.12 11.92 10.89C12.02 10.65 12.08 10.4 12.09 10.15L12.09 10.08ZM24.67 18.08C24.67 14.81 22.6 13.54 20.53 13.54C19.86 13.51 19.19 13.65 18.58 13.96C17.98 14.27 17.47 14.73 17.1 15.3L17.01 15.3L17.01 13.82L13.82 13.82L13.82 24.67L17.21 24.67L17.21 18.9C17.16 18.31 17.35 17.72 17.73 17.27C18.11 16.81 18.65 16.52 19.24 16.47L19.37 16.47C20.45 16.47 21.25 17.15 21.25 18.86L21.25 24.67L24.65 24.67L24.67 18.08Z" fill="#FFFFFF" fill-opacity="1.000000" fill-rule="nonzero"/>
</svg>
