<svg width="111.824219" height="16.621094" viewBox="0 0 111.824 16.6211" fill="none" xmlns="http://www.w3.org/2000/svg" xmlns:xlink="http://www.w3.org/1999/xlink">
	<desc>
			Created with Pixso.
	</desc>
	<defs/>
	<path id="QOOBERRIE" d="M8.95 14.08L11.08 16.62L14.56 16.62L11.36 13.02Q11.83 12.68 12.24 12.28Q12.99 11.52 13.51 10.53Q13.64 10.27 13.75 10Q14.3 8.68 14.3 7.13Q14.3 5.56 13.73 4.24Q13.56 3.84 13.34 3.47Q12.84 2.61 12.15 1.94Q11.54 1.35 10.77 0.92Q10.29 0.65 9.78 0.45Q8.55 0 7.16 0Q5.86 0 4.7 0.4Q4.11 0.61 3.55 0.92Q2.79 1.35 2.18 1.93Q1.47 2.59 0.96 3.47Q0.72 3.86 0.55 4.28Q0 5.59 0 7.13Q0 8.78 0.61 10.15Q0.76 10.5 0.96 10.83Q1.47 11.69 2.17 12.36Q2.79 12.95 3.55 13.38Q4.1 13.68 4.68 13.89Q5.85 14.3 7.16 14.3Q7.82 14.3 8.46 14.18Q8.71 14.14 8.95 14.08ZM20.57 13.89Q21.74 14.3 23.05 14.3Q24.34 14.3 25.49 13.9Q26.09 13.69 26.65 13.38Q27.46 12.92 28.1 12.3Q28.75 11.65 29.23 10.83Q29.41 10.52 29.56 10.19Q30.19 8.81 30.19 7.13Q30.19 5.56 29.62 4.24Q29.45 3.84 29.23 3.47Q28.73 2.61 28.04 1.94Q27.43 1.35 26.66 0.92Q26.18 0.65 25.67 0.45Q24.44 0 23.05 0Q21.75 0 20.59 0.4Q20 0.61 19.44 0.92Q18.68 1.35 18.07 1.93Q17.36 2.59 16.85 3.47Q16.61 3.86 16.44 4.28Q15.89 5.59 15.89 7.13Q15.89 8.78 16.5 10.15Q16.65 10.5 16.85 10.83Q17.36 11.69 18.06 12.36Q18.68 12.95 19.44 13.38Q19.99 13.68 20.57 13.89ZM36.42 13.89Q37.59 14.3 38.9 14.3Q40.19 14.3 41.34 13.9Q41.94 13.69 42.5 13.38Q43.31 12.92 43.95 12.3Q44.6 11.65 45.08 10.83Q45.26 10.52 45.41 10.19Q46.04 8.81 46.04 7.13Q46.04 5.56 45.47 4.24Q45.3 3.84 45.08 3.47Q44.58 2.61 43.89 1.94Q43.28 1.35 42.51 0.92Q42.03 0.65 41.52 0.45Q40.29 0 38.9 0Q37.6 0 36.44 0.4Q35.85 0.61 35.29 0.92Q34.53 1.35 33.92 1.93Q33.21 2.59 32.7 3.47Q32.46 3.86 32.29 4.28Q31.74 5.59 31.74 7.13Q31.74 8.78 32.35 10.15Q32.5 10.5 32.7 10.83Q33.21 11.69 33.91 12.36Q34.53 12.95 35.29 13.38Q35.84 13.68 36.42 13.89ZM64.08 5.96L64.08 2.46L69.38 2.46L69.38 0.18L61.28 0.18L61.28 14.16L69.38 14.16L69.38 11.87L64.08 11.87L64.08 8.17L68.78 8.17L68.78 5.96L64.08 5.96ZM106.52 5.96L106.52 2.46L111.82 2.46L111.82 0.18L103.72 0.18L103.72 14.16L111.82 14.16L111.82 11.87L106.52 11.87L106.52 8.17L111.22 8.17L111.22 5.96L106.52 5.96ZM57.16 7.34Q56.72 7.1 56.19 7Q56.97 6.75 57.53 6.25Q57.74 6.06 57.92 5.83Q58.02 5.7 58.11 5.56Q58.57 4.82 58.57 3.79Q58.57 3.08 58.31 2.46Q58.2 2.19 58.03 1.93Q57.99 1.87 57.95 1.8Q57.42 1.08 56.48 0.65Q55.45 0.2 54.03 0.2L48.27 0.2L48.27 14.16L54.29 14.16Q55.71 14.16 56.75 13.68Q57.67 13.25 58.21 12.53Q58.28 12.44 58.34 12.34Q58.45 12.17 58.54 11.99Q58.89 11.27 58.89 10.38Q58.89 9.72 58.67 9.14Q58.48 8.63 58.13 8.18Q57.71 7.65 57.16 7.34ZM76.18 8.72L79.27 14.16L82.51 14.16L79.17 8.5Q80.54 8.13 81.32 7.25Q81.44 7.11 81.55 6.97Q81.94 6.42 82.14 5.82Q82.35 5.18 82.35 4.48Q82.35 3.6 82.04 2.85Q81.93 2.57 81.78 2.3Q81.69 2.16 81.6 2.03Q81.04 1.25 80.07 0.77Q78.93 0.2 77.31 0.2L72.07 0.2L72.07 14.16L74.87 14.16L74.87 8.72L76.18 8.72ZM89.15 8.72L92.24 14.16L95.48 14.16L92.14 8.5Q93.51 8.13 94.29 7.25Q94.41 7.11 94.52 6.97Q94.91 6.42 95.11 5.82Q95.32 5.18 95.32 4.48Q95.32 3.6 95.01 2.85Q94.9 2.57 94.75 2.3Q94.66 2.16 94.57 2.03Q94.01 1.25 93.04 0.77Q91.9 0.2 90.28 0.2L85.04 0.2L85.04 14.16L87.84 14.16L87.84 8.72L89.15 8.72ZM100.81 14.16L100.81 0.2L98.01 0.2L98.01 14.16L100.81 14.16ZM53.63 5.96L51.07 5.96L51.07 2.46L53.63 2.46Q54.63 2.46 55.16 2.91Q55.31 3.04 55.42 3.19Q55.71 3.6 55.71 4.21Q55.71 4.83 55.41 5.24Q55.31 5.39 55.16 5.51Q54.63 5.96 53.63 5.96ZM3.41 9.59Q2.88 8.54 2.88 7.13Q2.88 5.74 3.41 4.69Q3.77 3.99 4.32 3.51Q4.6 3.27 4.93 3.08Q5.01 3.03 5.1 2.98Q6.01 2.51 7.16 2.51Q8.34 2.51 9.25 3.01Q9.31 3.04 9.37 3.08Q9.68 3.26 9.95 3.49Q10.51 3.97 10.87 4.69Q11.42 5.74 11.42 7.13Q11.42 8.54 10.87 9.59Q10.5 10.33 9.93 10.83Q9.67 11.05 9.37 11.23Q9.29 11.28 9.2 11.32Q8.31 11.8 7.16 11.8Q6.04 11.8 5.15 11.35Q5.04 11.29 4.93 11.23Q4.61 11.04 4.34 10.8Q3.78 10.31 3.41 9.59ZM25.09 11.32Q24.2 11.8 23.05 11.8Q21.93 11.8 21.04 11.35Q20.93 11.29 20.82 11.23Q20.5 11.04 20.23 10.8Q19.67 10.31 19.3 9.59Q18.77 8.54 18.77 7.13Q18.77 5.74 19.3 4.69Q19.66 3.99 20.21 3.51Q20.49 3.27 20.82 3.08Q20.9 3.03 20.99 2.98Q21.9 2.51 23.05 2.51Q24.23 2.51 25.14 3.01Q25.2 3.04 25.26 3.08Q25.57 3.26 25.84 3.49Q26.4 3.97 26.76 4.69Q27.31 5.74 27.31 7.13Q27.31 8.54 26.76 9.59Q26.39 10.33 25.82 10.83Q25.56 11.05 25.26 11.23Q25.18 11.28 25.09 11.32ZM40.94 11.32Q40.05 11.8 38.9 11.8Q37.78 11.8 36.89 11.35Q36.78 11.29 36.67 11.23Q36.35 11.04 36.08 10.8Q35.52 10.31 35.15 9.59Q34.62 8.54 34.62 7.13Q34.62 5.74 35.15 4.69Q35.51 3.99 36.06 3.51Q36.34 3.27 36.67 3.08Q36.75 3.03 36.84 2.98Q37.75 2.51 38.9 2.51Q40.08 2.51 40.99 3.01Q41.05 3.04 41.11 3.08Q41.42 3.26 41.69 3.49Q42.25 3.97 42.61 4.69Q43.16 5.74 43.16 7.13Q43.16 8.54 42.61 9.59Q42.24 10.33 41.67 10.83Q41.41 11.05 41.11 11.23Q41.03 11.28 40.94 11.32ZM77.21 6.62L74.87 6.62L74.87 2.51L77.21 2.51Q78.35 2.51 78.9 3.05Q79 3.14 79.08 3.24Q79.47 3.74 79.47 4.54Q79.47 5.36 79.07 5.89Q78.99 5.98 78.9 6.07Q78.35 6.62 77.21 6.62ZM90.18 6.62L87.84 6.62L87.84 2.51L90.18 2.51Q91.32 2.51 91.87 3.05Q91.97 3.14 92.05 3.24Q92.44 3.74 92.44 4.54Q92.44 5.36 92.04 5.89Q91.96 5.98 91.87 6.07Q91.32 6.62 90.18 6.62ZM55.48 11.4Q54.9 11.87 53.89 11.87L51.07 11.87L51.07 8.12L53.83 8.12Q54.82 8.12 55.42 8.6Q55.43 8.62 55.45 8.63Q55.64 8.79 55.77 8.99Q56.05 9.42 56.05 10.03Q56.05 10.67 55.75 11.09Q55.64 11.26 55.48 11.4Z" fill="#FFFFFF" fill-opacity="1.000000" fill-rule="evenodd"/>
</svg>
