<svg width="50.000000" height="50.000000" viewBox="0 0 50 50" fill="none" xmlns="http://www.w3.org/2000/svg" xmlns:xlink="http://www.w3.org/1999/xlink">
	<desc>
			Created with Pixso.
	</desc>
	<defs>
		<clipPath id="clip6_848">
			<rect id="icon ui design" rx="0.000000" width="49.000000" height="49.000000" transform="translate(0.500000 0.500000)" fill="white" fill-opacity="0"/>
		</clipPath>
	</defs>
	<g clip-path="url(#clip6_848)">
		<path id="Icon" d="M39.58 8.33C40.73 8.33 41.66 9.26 41.66 10.41L41.66 14.58C41.66 15.73 40.73 16.66 39.58 16.66L10.41 16.66C9.26 16.66 8.33 15.73 8.33 14.58L8.33 10.41C8.33 9.26 9.26 8.33 10.41 8.33L39.58 8.33ZM22.91 25C24.06 25 25 25.93 25 27.08L25 39.58C25 40.73 24.06 41.66 22.91 41.66L10.41 41.66C9.26 41.66 8.33 40.73 8.33 39.58L8.33 27.08C8.33 25.93 9.26 25 10.41 25L22.91 25ZM39.58 25C40.73 25 41.66 25.93 41.66 27.08L41.66 39.58C41.66 40.73 40.73 41.66 39.58 41.66L35.41 41.66C34.26 41.66 33.33 40.73 33.33 39.58L33.33 27.08C33.33 25.93 34.26 25 35.41 25L39.58 25Z" stroke="#7061F0" stroke-opacity="1.000000" stroke-width="3.000000" stroke-linejoin="round"/>
	</g>
</svg>
